<svg viewBox="0 0 431 500" xmlns="http://www.w3.org/2000/svg">
  <defs>
    <linearGradient gradientUnits="userSpaceOnUse" x1="479.998" y1="209.263" x2="479.998" y2="1710.741" id="gradient-0" gradientTransform="matrix(-1.949371, 5.674881, -1.219526, -0.130955, 2948.205994, 3837.994019)" spreadMethod="pad">
      <stop offset="0" style="stop-color: rgb(97, 183, 251);"></stop>
      <stop offset="1" style="stop-color: rgb(31, 142, 240);"></stop>
    </linearGradient>
  </defs>
  <g transform="matrix(0.054892, 0, 0, 0.054892, 53.402187, 176.85733)" style="">
    <defs></defs>
    <path d="M 6337.301 -2829.686 C 6475.728 -2866.091 6626.352 -2883.253 6776.468 -2896.082 C 6796.592 -2898.393 6816.716 -2896.197 6834.604 -2890.65 C 6805.333 -2857.307 6756.547 -2831.362 6714.674 -2803.046 C 6441.375 -2629.515 6211.781 -2435.239 6024.974 -2229.174 C 5977.104 -2178.091 5935.23 -2125.217 5890.206 -2073.383 C 5700.96 -1979.423 5500.128 -1890.375 5341.272 -1779.311 C 5467.91 -1829.758 5590.279 -1883.441 5716.002 -1934.581 C 5748.221 -1947.525 5779.321 -1961.625 5814.69 -1971.853 C 5721.999 -1850.907 5637.743 -1727.823 5565.988 -1602.37 C 5506.226 -1500.262 5460.795 -1395.843 5404.997 -1293.042 C 5270.025 -1043.58 5096.127 -801.168 4902.104 -564.303 C 4822.625 -464.68 4731.153 -368.12 4656.451 -267.283 C 4564.471 -145.066 4484.382 -19.381 4367.196 96.364 C 4229.785 233.721 4020.11 344.034 3789.398 432.042 C 3968.886 393.21 4130.588 329.877 4260.072 250.479 C 4329.794 209.046 4385.389 161.315 4439.459 113.468 C 4422.689 187.088 4379.596 257.991 4345.751 329.588 C 4257.226 503.639 4158.741 676.072 4053.04 847.119 C 3994.397 939.345 3934.838 1031.572 3862.779 1120.909 C 3900.587 1100.626 3937.684 1079.881 3976.407 1060.118 C 3787.365 1332.001 3700.466 1621.797 3517.929 1894.836 C 3445.666 2003.936 3360.699 2110.32 3263.433 2213.121 C 3184.361 2299.858 3078.558 2377.927 2966.861 2452.124 C 2907.505 2489.742 2847.236 2527.014 2780.156 2560.415 C 2683.297 2611.555 2569.465 2651.139 2465.086 2697.136 C 2229.189 2775.436 1998.273 2860.902 1795.612 2964.685 C 1911.578 2918.052 2028.256 2870.205 2158.349 2836.516 C 2015.348 2903.374 1887.084 2980.23 1780.265 3065.868 C 1751.807 3089.85 1713.592 3112.328 1705.36 3141.915 C 1698.347 3146.249 1691.232 3150.583 1684.016 3154.974 C 1710.238 3143.475 1743.371 3141.337 1775.59 3139.257 C 1857.305 3131.051 1944.406 3140.643 2014.84 3165.318 C 2087.205 3190.975 2122.574 3241.133 2114.544 3287.94 C 2116.272 3303.658 2098.181 3320.878 2114.748 3335.498 C 2172.68 3392.417 2197.073 3460.72 2173.9 3525.325 C 2156.52 3571.322 2111.495 3612.581 2054.986 3646.848 C 2036.692 3656.383 2029.577 3678.804 1997.562 3672.332 L 1997.359 3676.261 C 1959.347 3688.512 1921.234 3700.763 1881.392 3711.049 C 1880.579 3714.169 1878.852 3720.468 1877.937 3723.588 C 1885.559 3723.415 1900.398 3723.068 1907.818 3722.895 C 1876.92 3725.091 1896.231 3740.866 1894.097 3750.863 C 1897.248 3781.374 1863.098 3810.094 1817.565 3825.696 C 1785.855 3837.484 1748.25 3841.992 1711.763 3846.961 C 1696.314 3976.633 1731.785 4110.985 1842.873 4226.442 C 1928.45 4316.761 2059.56 4392.287 2213.334 4446.953 C 2395.059 4512.135 2603.208 4550.563 2813.493 4574.486 C 2897.647 4584.137 2981.191 4598.641 3054.572 4624.124 C 3130.596 4651.284 3203.875 4685.493 3240.362 4732.993 C 3307.34 4817.534 3316.792 4912.939 3299.921 5003.894 C 3278.069 5127.382 3215.258 5247.808 3127.953 5361.589 C 3055.385 5453.411 2965.539 5541.592 2850.894 5619.083 C 2922.751 5640.753 2923.157 5712.985 2842.154 5727.778 C 2286.817 5771.407 1724.975 5780.653 1164.963 5779.323 C 676.299 5777.937 185.094 5772.389 -298.081 5728.01 C -378.272 5715.065 -381.219 5646.242 -317.291 5621.452 C -437.83 5544.886 -527.575 5454.913 -600.244 5361.762 C -678.402 5258.672 -735.623 5150.034 -758.694 5038.623 C -772.821 4966.333 -772.11 4892.251 -740.095 4821.406 C -720.276 4776.159 -682.264 4734.149 -638.357 4694.854 C -574.53 4645.332 -477.875 4611.123 -375.629 4591.591 C -306.924 4577.953 -234.051 4573.388 -163.719 4563.507 C 38.739 4536.232 237.741 4493.528 406.761 4424.416 C 546.917 4367.613 663.086 4291.971 738.094 4204.598 C 829.566 4098.908 860.971 3979.58 850.604 3863.083 C 613.895 3873.08 388.467 3770.395 347.61 3640.954 C 342.731 3624.023 340.597 3606.745 327.689 3591.027 C 281.14 3525.613 282.156 3447.602 347.101 3386.118 C 385.113 3348.442 447.924 3321.398 512.564 3298.861 C 541.835 3289.327 547.019 3268.177 571.513 3255.869 C 670.709 3199.585 834.139 3183.81 961.285 3218.481 C 880.078 3162.371 776.308 3116.142 658.716 3086.094 C 818.081 3117.471 948.886 3184.041 1050.216 3258.238 C 956 3143.07 804.258 3036.86 595.397 2982.483 C 665.526 2992.596 724.983 3017.848 782.915 3041.078 C 884.957 3084.418 966.977 3140.47 1036.699 3200.221 C 1019.014 3166.185 1007.021 3131.455 993.504 3096.899 C 1048.184 3149.6 1101.746 3202.821 1164.861 3252.633 C 1112.214 3189.704 1058.855 3126.89 1015.051 3061.823 C 988.219 3018.657 951.325 2976.474 944.211 2930.36 C 904.878 2763.648 889.734 2595.317 892.478 2427.218 C 883.128 2178.681 946.955 1931.819 1004.785 1686.055 C 1068.714 1761.639 1118.312 1840.748 1176.245 1917.777 C 1193.421 1939.273 1205.719 1962.388 1230.518 1981.804 C 1183.054 1845.256 1121.971 1710.268 1070.34 1574.182 C 1063.734 1554.13 1051.843 1534.309 1052.452 1513.795 C 1073.491 1417.12 1105.201 1321.31 1134.167 1225.328 C 1178.582 1082.886 1222.387 940.443 1264.769 797.827 C 1299.325 678.268 1337.032 558.825 1360.307 438.341 C 1372.3 514.387 1386.732 590.838 1423.829 664.631 C 1491.518 808.633 1618.258 943.853 1791.242 1057.055 C 1751.807 1013.831 1713.897 969.972 1681.069 925.072 C 1673.954 918.658 1681.17 912.995 1689.504 908.661 C 1734.732 958.646 1774.98 1010.133 1826.509 1058.269 C 1746.624 968.296 1662.876 878.728 1603.419 783.554 C 1589.8 783.034 1582.177 779.105 1580.551 771.824 C 1508.491 634.813 1462.654 488.904 1511.947 346.981 C 1526.989 309.941 1593.865 294.05 1638.077 269.779 C 1678.324 248.11 1685.439 214.709 1678.629 185.181 C 1659.624 95.381 1696.111 5.409 1749.571 -78.843 C 1862.082 -252.837 2045.636 -408.397 2179.998 -576.9 C 2269.336 -668.78 2377.476 -754.477 2481.856 -841.156 C 2722.529 -1035.085 2968.08 -1227.223 3223.389 -1415.259 C 3288.334 -1461.025 3349.62 -1508.872 3422.595 -1550.825 C 3399.117 -1514.824 3372.285 -1477.899 3378.688 -1438.662 C 3380.619 -1400.581 3422.087 -1368.915 3445.158 -1334.416 C 3449.223 -1443.632 3521.486 -1547.473 3612.348 -1642.762 C 3695.893 -1729.037 3797.427 -1810.399 3919.796 -1880.956 C 3974.07 -1911.062 4032.408 -1939.435 4099.386 -1960.469 C 4068.591 -1923.949 4052.837 -1883.441 4054.463 -1842.991 C 4088.613 -1932.212 4198.684 -2003.52 4305.503 -2069.223 C 4569.959 -2223.338 4880.964 -2349.6 5196.441 -2468.928 C 5561.313 -2603.396 5937.873 -2729.832 6337.301 -2829.686 M 3691.726 -736.621 C 3417.615 -444.166 3165.253 -145.297 2938.098 159.524 C 2649.554 544.783 2402.885 939.519 2181.827 1338.357 C 2173.087 1338.242 2155.504 1338.011 2146.56 1337.895 C 2134.668 1313.336 2098.791 1296.174 2075.618 1275.082 C 1985.671 1206.952 1909.342 1133.679 1830.575 1061.62 C 1915.745 1151.651 2018.397 1236.307 2126.233 1318.363 C 2133.144 1324.431 2139.445 1330.787 2145.035 1337.433 C 2135.583 1337.375 2116.78 1337.202 2107.43 1337.144 C 2122.777 1351.417 2124.708 1367.308 2117.492 1383.373 C 2127.147 1383.43 2146.458 1383.488 2156.215 1383.488 C 2144.324 1412.15 2127.147 1439.945 2112.613 1468.202 C 1817.464 2024.161 1569.981 2587.632 1343.842 3153.472 C 1370.267 3153.241 1402.181 3156.766 1425.557 3152.432 C 1569.371 2807.161 1716.336 2462.236 1876.209 2119.161 C 2012.604 1825.84 2152.963 1532.98 2312.022 1243.184 C 2539.89 828.281 2794.283 417.307 3099.597 18.064 C 3286.403 -216.027 3482.458 -447.749 3685.831 -677.448 C 3703.109 -698.944 3730.449 -718.649 3734.413 -742.746 C 3719.574 -742.053 3697.214 -747.831 3691.726 -736.621 M 1669.889 3186.872 C 1734.631 3177.049 1803.031 3171.501 1869.095 3180.862 C 1957.822 3189.704 2038.623 3226.86 2059.865 3276.845 C 2064.133 3290.425 2073.789 3302.964 2090.05 3313.597 C 2115.662 3265.808 2083.241 3208.08 2008.742 3179.649 C 1949.082 3158.673 1876.006 3150.178 1806.284 3154.57 C 1757.397 3158.673 1704.648 3165.665 1669.889 3186.872 M 566.126 3281.641 C 640.828 3263.265 721.019 3249.57 803.547 3250.957 C 883.636 3249.628 959.862 3265.23 1032.125 3282.797 C 1003.972 3264.883 974.6 3246.623 936.08 3235.701 C 815.032 3201.203 647.536 3219.637 566.126 3281.641 M 1601.996 3248.703 C 1565.102 3261.474 1555.65 3286.842 1548.942 3309.032 C 1595.796 3280.601 1654.948 3257.602 1722.739 3248.183 C 1788.904 3238.417 1857.61 3247.49 1921.335 3258.238 C 1861.573 3233.448 1787.888 3218.943 1712.881 3220.157 C 1669.99 3218.886 1635.638 3236.164 1601.996 3248.703 M 1525.668 3371.787 C 1561.444 3373.347 1596.508 3378.375 1629.946 3385.823 C 1733.919 3366.292 1849.987 3379.068 1940.341 3411.307 L 1945.626 3410.966 C 1984.146 3436.219 2036.895 3454.941 2064.235 3485.452 C 2073.585 3492.502 2075.212 3503.886 2090.863 3507.873 C 2133.347 3460.142 2137.108 3399.698 2078.362 3355.549 C 2047.77 3381.9 1998.07 3397.444 1952.741 3414.607 C 1941.053 3394.324 1981.91 3398.716 1995.123 3386.985 C 2022.361 3367.101 2029.679 3341.45 2029.577 3317.064 C 1949.488 3278.919 1839.214 3256.042 1734.224 3269.275 C 1640.719 3283.895 1574.25 3327.119 1525.668 3371.787 M 541.225 3313.481 C 528.521 3336.942 533.094 3361.79 540.616 3385.54 C 634.527 3347.691 747.851 3323.189 864.122 3321.918 C 910.467 3328.506 954.069 3316.659 999.297 3313.192 C 858.125 3273.609 679.551 3266.79 541.225 3313.481 M 370.681 3397.964 C 312.545 3450.723 306.955 3517.812 338.564 3576.234 C 355.232 3503.713 425.361 3437.374 526.488 3391.666 C 516.02 3368.551 508.905 3344.686 515.41 3320.936 C 461.238 3342.605 405.339 3365.373 370.681 3397.964 M 986.796 3334.169 C 1034.666 3345.09 1081.012 3358.092 1124.512 3373.868 C 1113.434 3355.26 1086.5 3341.392 1054.993 3333.88 C 1032.43 3331.158 1009.359 3332.666 986.796 3334.169 M 2049.599 3361.097 C 2065.15 3361.617 2074.907 3347.979 2068.3 3341.097 C 2052.75 3339.485 2045.534 3354.215 2049.599 3361.097 M 558.808 3413.046 C 583.811 3434.832 614.708 3455.635 657.7 3466.839 C 678.942 3418.247 748.562 3384.899 810.763 3352.308 C 722.137 3365.021 630.97 3379.698 558.808 3413.041 M 843.49 3362.536 C 771.532 3388.135 706.79 3423.558 678.128 3469.44 C 686.666 3471 703.842 3474.12 712.481 3475.681 C 748.46 3442.569 805.783 3415.641 875.708 3409.285 C 983.543 3398.421 1087.618 3429.741 1165.268 3469.151 C 1179.903 3445.401 1137.725 3433.959 1109.978 3422.286 C 1041.273 3395.243 969.01 3368.545 886.583 3356.873 C 870.931 3352.597 856.194 3358.092 843.49 3362.542 M 1520.993 3384.153 C 1516.622 3395.358 1512.455 3406.632 1508.186 3417.958 C 1538.067 3407.788 1569.371 3399.004 1601.183 3391.03 C 1575.063 3386.812 1548.231 3383.859 1520.993 3384.153 M 1680.764 3403.101 C 1736.968 3427.14 1777.419 3466.493 1763.19 3506.943 C 1756.787 3539.592 1715.117 3565.596 1669.279 3584.029 C 1801.304 3633.841 1994.411 3600.094 2071.248 3525.319 C 2057.832 3496.715 2022.463 3473.6 1986.789 3452.682 C 1908.224 3408.36 1789.107 3391.949 1680.764 3403.101 M 1523.127 3442.396 C 1511.642 3447.77 1495.075 3452.335 1492.535 3461.523 C 1467.837 3528.613 1444.664 3595.875 1419.967 3662.965 C 1500.361 3663.716 1580.856 3661.867 1661.25 3661.578 C 1733.106 3659.844 1809.231 3669.784 1859.744 3700.179 C 1940.646 3681.456 2014.738 3651.523 2064.946 3611.189 C 2082.428 3589.114 2080.293 3564.035 2077.956 3540.574 C 2026.731 3574.495 1958.432 3602.174 1878.547 3609.513 C 1803.946 3618.99 1724.772 3609.108 1661.86 3585.358 C 1617.038 3596.338 1568.66 3592.235 1526.989 3578.886 C 1567.135 3588.363 1612.77 3596.453 1653.932 3583.105 C 1630.759 3568.485 1609.416 3552.42 1602.098 3533.004 L 1593.967 3534.565 C 1593.459 3525.897 1593.052 3517.287 1593.764 3508.792 C 1612.261 3516.593 1601.793 3530.808 1609.416 3541.499 C 1620.087 3556.812 1638.28 3571.143 1662.266 3580.851 C 1728.329 3560.742 1769.898 3514.86 1750.079 3473.369 C 1739.814 3445.054 1702.717 3422.344 1659.725 3407.724 C 1610.025 3411.712 1564.289 3426.62 1523.127 3442.396 M 378.608 3629.16 C 431.865 3690.471 539.701 3736.469 660.241 3748.257 C 667.558 3699.023 751.916 3667.53 833.733 3662.618 C 763.706 3643.838 700.793 3612.749 671.217 3571.836 C 646.825 3540.69 645.808 3505.729 654.549 3472.618 C 608.711 3461.119 572.732 3440.72 546.205 3417.201 C 434.101 3467.013 355.639 3547.566 378.608 3629.16 M 811.983 3453.78 C 797.652 3459.327 776.918 3464.181 776.41 3475.623 C 729.861 3487.238 715.327 3521.505 711.872 3547.682 C 706.993 3577.384 743.887 3600.383 782 3617.776 C 731.589 3603.272 696.728 3574.321 692.256 3542.712 C 686.158 3520.869 700.082 3499.835 708.619 3478.974 C 700.387 3478.108 683.82 3476.432 675.588 3475.623 C 666.847 3501.164 664.408 3527.977 677.315 3553.345 C 696.118 3594.835 750.9 3628.582 814.828 3650.656 C 857.719 3666.605 911.281 3661.751 959.964 3662.676 C 1000.517 3663.774 1031.82 3647.594 1060.99 3634.13 C 1080.301 3623.093 1107.234 3613.558 1110.588 3596.916 C 1120.853 3569.121 1134.371 3541.672 1142.806 3513.646 C 1120.345 3487.7 1075.93 3468.689 1030.601 3455.86 C 963.013 3438.871 878.249 3430.723 811.983 3453.78 M 2141.783 3460.483 C 2131.314 3484.406 2114.443 3507.232 2093.099 3528.728 C 2099.198 3546.873 2097.775 3565.422 2099.706 3583.914 C 2132.026 3545.428 2149.101 3503.071 2141.783 3460.483 M 1054.079 3645.456 L 1048.59 3642.335 C 1032.024 3649.79 1014.644 3656.608 997.264 3663.543 C 1026.23 3662.907 1055.298 3662.849 1084.264 3662.734 C 1087.415 3651.986 1099.002 3640.717 1090.769 3630.2 C 1074.406 3628.582 1065.462 3640.371 1054.079 3645.456 M 388.365 3656.666 C 435.016 3771.718 642.658 3865.562 856.296 3851.925 C 826.618 3841.35 789.216 3842.044 758.827 3832.336 C 701.911 3817.6 658.005 3785.529 660.85 3749.413 C 550.474 3742.247 456.766 3703.82 388.365 3656.666 Z" style="fill: url(#gradient-0); paint-order: stroke;"></path>
  </g>
</svg>